<svg width="560" height="140" viewBox="0 0 560 140" version="1.1" xmlns="http://www.w3.org/2000/svg" xmlns:xlink="http://www.w3.org/1999/xlink">
<title>coinfront</title>
<desc>Created using Figma</desc>
<g id="Canvas" transform="translate(630 692)">
<clipPath id="clip-0" clip-rule="evenodd">
<path d="M -630 -692L -70 -692L -70 -552L -630 -552L -630 -692Z" fill="#FFFFFF"/>
</clipPath>
<g id="coinfront" clip-path="url(#clip-0)">
<g id="CoinFront">
<use xlink:href="#path0_fill" transform="translate(-609 -675)" fill="#FFFFFF"/>
</g>
</g>
</g>
<defs>
<path id="path0_fill" d="M 39.2512 93.2016C 52.6687 93.2016 60.9795 86.0923 66.0862 78.0818L 56.0731 73.0753C 52.869 78.5825 46.3605 82.788 39.2512 82.788C 26.034 82.788 16.2212 72.5747 16.2212 58.6565C 16.2212 44.5381 26.034 34.525 39.2512 34.525C 46.3605 34.525 52.869 38.6304 56.0731 44.2377L 65.9861 39.0309C 61.0797 31.0205 52.6687 24.1115 39.2512 24.1115C 19.5255 24.1115 4.20548 38.0296 4.20548 58.6565C 4.20548 79.1833 19.5255 93.2016 39.2512 93.2016ZM 101.196 93.2016C 118.519 93.2016 130.334 80.8855 130.334 64.4641C 130.334 48.0427 118.519 35.7266 101.196 35.7266C 83.8735 35.7266 72.1582 48.0427 72.1582 64.4641C 72.1582 80.8855 83.8735 93.2016 101.196 93.2016ZM 101.196 83.589C 90.2818 83.589 83.2727 75.2782 83.2727 64.4641C 83.2727 53.5499 90.2818 45.3391 101.196 45.3391C 112.11 45.3391 119.119 53.5499 119.119 64.4641C 119.119 75.2782 112.11 83.589 101.196 83.589ZM 151.983 92L 151.983 36.9282L 140.968 36.9282L 140.968 92L 151.983 92ZM 216.276 92L 216.276 36.9282L 205.362 36.9282L 205.362 73.9765L 177.325 36.9282L 165.61 36.9282L 165.61 92L 176.524 92L 176.524 53.8502L 205.161 92L 216.276 92ZM 241.869 92L 241.869 63.0623L 275.213 63.0623L 275.213 52.7488L 241.869 52.7488L 241.869 35.5263L 275.914 35.5263L 275.914 25.2129L 230.154 25.2129L 230.154 92L 241.869 92ZM 331.734 92L 317.616 70.9726C 324.925 69.9713 331.234 64.2638 331.234 54.451C 331.234 44.7384 324.325 36.9282 312.309 36.9282L 286.275 36.9282L 286.275 92L 297.289 92L 297.289 71.9739L 306.802 71.9739L 319.218 92L 331.734 92ZM 311.107 62.4615L 297.289 62.4615L 297.289 46.4406L 311.107 46.4406C 316.815 46.4406 320.019 49.7449 320.019 54.451C 320.019 59.1572 316.915 62.4615 311.107 62.4615ZM 368.635 93.2016C 385.957 93.2016 397.773 80.8855 397.773 64.4641C 397.773 48.0427 385.957 35.7266 368.635 35.7266C 351.312 35.7266 339.597 48.0427 339.597 64.4641C 339.597 80.8855 351.312 93.2016 368.635 93.2016ZM 368.635 83.589C 357.72 83.589 350.711 75.2782 350.711 64.4641C 350.711 53.5499 357.72 45.3391 368.635 45.3391C 379.549 45.3391 386.558 53.5499 386.558 64.4641C 386.558 75.2782 379.549 83.589 368.635 83.589ZM 459.073 92L 459.073 36.9282L 448.159 36.9282L 448.159 73.9765L 420.122 36.9282L 408.407 36.9282L 408.407 92L 419.321 92L 419.321 53.8502L 447.958 92L 459.073 92ZM 495.38 92L 495.38 46.4406L 511.602 46.4406L 511.602 36.9282L 468.145 36.9282L 468.145 46.4406L 484.466 46.4406L 484.466 92L 495.38 92Z"/>
</defs>
</svg>
