<svg width="400" height="100" viewBox="0 0 400 100" version="1.1" xmlns="http://www.w3.org/2000/svg" xmlns:xlink="http://www.w3.org/1999/xlink">
<title>DUO_Logo</title>
<desc>Created using Figma</desc>
<g id="Canvas" transform="translate(-448 -181)">
<clipPath id="clip-0" clip-rule="evenodd">
<path d="M 448 181L 848 181L 848 281L 448 281L 448 181Z" fill="#FFFFFF"/>
</clipPath>
<g id="DUO_Logo" clip-path="url(#clip-0)">
<g id="Logo">
<g id="Combined Shape">
<use xlink:href="#path0_stroke" transform="translate(508 190)" fill="#FFFFFF"/>
</g>
<g id="Combined Shape Copy 2">
<use xlink:href="#path1_stroke" transform="matrix(-1 1.22249e-16 -1.22681e-16 -1 580 271)" fill="#FFFFFF"/>
</g>
</g>
<g id="DUO">
<use xlink:href="#path2_fill" transform="translate(597 185)" fill="#FFFFFF"/>
</g>
</g>
</g>
<defs>
<path id="path0_stroke" d="M 34.0485 0.0777612L 36.4421 2.6313L 42.2958 -2.85582L 34.2919 -3.41377L 34.0485 0.0777612ZM 27.0933 63.546L 26.5769 67.0077L 30.5933 67.6068L 30.5933 63.546L 27.0933 63.546ZM 34.2919 -3.41377C 33.4688 -3.47114 32.6409 -3.5 31.8094 -3.5L 31.8094 3.5C 32.4789 3.5 33.1444 3.52323 33.8051 3.56929L 34.2919 -3.41377ZM 31.8094 -3.5C 12.2999 -3.5 -3.5 12.379 -3.5 31.9472L 3.5 31.9472C 3.5 16.2178 16.193 3.5 31.8094 3.5L 31.8094 -3.5ZM -3.5 31.9472C -3.5 49.7103 9.52875 64.4645 26.5769 67.0077L 27.6096 60.0843C 13.9673 58.0492 3.5 46.2196 3.5 31.9472L -3.5 31.9472ZM 30.5933 63.546L 30.5933 16.1335L 23.5933 16.1335L 23.5933 63.546L 30.5933 63.546ZM 30.5933 16.1335C 30.5933 10.8532 32.8181 6.02837 36.4421 2.6313L 31.6549 -2.47578C 26.6652 2.20138 23.5933 8.8558 23.5933 16.1335L 30.5933 16.1335Z"/>
<path id="path1_stroke" d="M 34.0485 0.0777612L 36.4421 2.6313L 42.2958 -2.85582L 34.2919 -3.41377L 34.0485 0.0777612ZM 27.0933 63.546L 26.5769 67.0077L 30.5933 67.6068L 30.5933 63.546L 27.0933 63.546ZM 34.2919 -3.41377C 33.4688 -3.47114 32.6409 -3.5 31.8094 -3.5L 31.8094 3.5C 32.4789 3.5 33.1444 3.52323 33.8051 3.56929L 34.2919 -3.41377ZM 31.8094 -3.5C 12.2999 -3.5 -3.5 12.379 -3.5 31.9472L 3.5 31.9472C 3.5 16.2178 16.193 3.5 31.8094 3.5L 31.8094 -3.5ZM -3.5 31.9472C -3.5 49.7103 9.52875 64.4645 26.5769 67.0077L 27.6096 60.0843C 13.9673 58.0492 3.5 46.2196 3.5 31.9472L -3.5 31.9472ZM 30.5933 63.546L 30.5933 16.1335L 23.5933 16.1335L 23.5933 63.546L 30.5933 63.546ZM 30.5933 16.1335C 30.5933 10.8532 32.8181 6.02837 36.4421 2.6313L 31.6549 -2.47578C 26.6652 2.20138 23.5933 8.8558 23.5933 16.1335L 30.5933 16.1335Z"/>
<path id="path2_fill" d="M 7.00781 19.0703L 29.1357 19.0703C 37.3877 19.0703 44.0273 21.3809 49.0547 26.002C 54.2598 30.7754 56.8623 37.1611 56.8623 45.1592C 56.8623 53.6143 54.1963 60.3809 48.8643 65.459C 43.6084 70.4863 36.6768 73 28.0693 73L 7.00781 73L 7.00781 19.0703ZM 29.0215 66.6016C 35.3438 66.6016 40.333 64.6973 43.9893 60.8887C 47.5947 57.1309 49.3975 52.04 49.3975 45.6162C 49.3975 39.4209 47.4043 34.4951 43.418 30.8389C 39.5332 27.2588 34.4043 25.4688 28.0312 25.4688L 14.0537 25.4688L 14.0537 66.6016L 29.0215 66.6016ZM 66.7646 19.0703L 73.8105 19.0703L 73.8105 46.9873C 73.8105 56.7881 77.0732 63.123 83.5986 65.9922C 85.833 66.957 88.4736 67.4395 91.5205 67.4395C 94.5674 67.4395 97.1572 66.9951 99.29 66.1064C 101.448 65.2178 103.226 63.9355 104.622 62.2598C 107.339 59.0352 108.697 54.3252 108.697 48.1299L 108.697 19.0703L 115.743 19.0703L 115.743 46.9873C 115.743 59.9111 111.084 68.2266 101.766 71.9336C 98.668 73.1523 95.0879 73.7617 91.0254 73.7617C 86.9629 73.7617 83.4209 73.1777 80.3994 72.0098C 77.4033 70.8164 74.9023 69.1152 72.8965 66.9062C 68.8086 62.4375 66.7646 56.1787 66.7646 48.1299L 66.7646 19.0703ZM 135.357 66.1826C 132.717 63.7705 130.622 60.9014 129.073 57.5752C 127.55 54.249 126.788 50.8975 126.788 47.5205C 126.788 44.1436 127.131 41.2236 127.816 38.7607C 128.527 36.2725 129.53 33.9873 130.825 31.9053C 132.12 29.7979 133.669 27.9062 135.472 26.2305C 137.274 24.5547 139.28 23.1328 141.489 21.9648C 146.11 19.5273 151.15 18.3086 156.609 18.3086C 161.84 18.3086 166.715 19.4766 171.234 21.8125C 175.627 24.0977 179.131 27.2715 181.746 31.334C 184.412 35.5742 185.745 40.2842 185.745 45.4639C 185.745 53.665 182.851 60.457 177.062 65.8398C 173.431 69.2168 169.051 71.54 163.922 72.8096C 161.357 73.4443 158.387 73.7617 155.01 73.7617C 151.633 73.7617 148.18 73.1016 144.65 71.7812C 141.121 70.4355 138.023 68.5693 135.357 66.1826ZM 140.575 30.5723C 138.62 32.4258 137.071 34.6221 135.929 37.1611C 134.812 39.7002 134.253 42.4932 134.253 45.54C 134.253 48.5869 134.837 51.4434 136.005 54.1094C 137.173 56.7754 138.772 59.0986 140.804 61.0791C 145.146 65.3193 150.414 67.4395 156.609 67.4395C 162.627 67.4395 167.73 65.459 171.92 61.498C 176.16 57.4863 178.28 52.5225 178.28 46.6064C 178.28 42.5947 177.265 38.875 175.233 35.4473C 173.329 32.1973 170.65 29.582 167.197 27.6016C 163.795 25.6211 160.316 24.6309 156.762 24.6309C 153.207 24.6309 150.109 25.1641 147.469 26.2305C 144.854 27.2715 142.556 28.7188 140.575 30.5723Z"/>
</defs>
</svg>
